# xmcd
#
# Track frame offsets: 
#        150
#        19395
#        32270
#        49140
#
# Disc length: 921 seconds
#
# Revision: 9
# Processed by: cddbd v1.5.2PL0 Copyright (c) Steve Scherf et al.
# Submitted via: ExactAudioCopy v0.99pb5
#
DISCID=28039704
DTITLE=Xzibit - X [CDM)
DYEAR=2001
DGENRE=Hip-Hop
TTITLE0=X (Additional vocals by Snoop Dogg) (Explicit)
TTITLE1=Double Time (Explicit)
TTITLE2=Year 2000 (Remix feat. Jonathan Davis) (Explicit)
TTITLE3=X (Instrumental)
EXTD=YEAR: 2001
EXTT0=
EXTT1=
EXTT2=
EXTT3=
PLAYORDER=
